<svg width="24" height="24" viewBox="0 0 24 24" fill="none" xmlns="http://www.w3.org/2000/svg">
<path d="M12 12.7407C13.6569 12.7407 15 11.3976 15 9.74072C15 8.08387 13.6569 6.74072 12 6.74072C10.3431 6.74072 9 8.08387 9 9.74072C9 11.3976 10.3431 12.7407 12 12.7407Z" stroke="white" stroke-width="1.5" stroke-linecap="round" stroke-linejoin="round"/>
<path d="M19.5 9.74072C19.5 16.4907 12 21.7407 12 21.7407C12 21.7407 4.5 16.4907 4.5 9.74072C4.5 7.7516 5.29018 5.84394 6.6967 4.43742C8.10322 3.0309 10.0109 2.24072 12 2.24072C13.9891 2.24072 15.8968 3.0309 17.3033 4.43742C18.7098 5.84394 19.5 7.7516 19.5 9.74072V9.74072Z" stroke="white" stroke-width="1.5" stroke-linecap="round" stroke-linejoin="round"/>
</svg>
