<svg width="20" height="20" viewBox="0 0 20 20" fill="none" xmlns="http://www.w3.org/2000/svg">
<g clip-path="url(#clip0_1_482)">
<path d="M0 9.99072C0 8.17738 0.44668 6.50406 1.34 4.97072C2.23334 3.43738 3.44668 2.22406 4.98 1.33072C6.51334 0.437383 8.18668 -0.00927734 10 -0.00927734C11.8133 -0.00927734 13.4867 0.437383 15.02 1.33072C16.5533 2.22406 17.7667 3.43738 18.66 4.97072C19.5533 6.50406 20 8.17738 20 9.99072C20 11.8041 19.5533 13.4774 18.66 15.0107C17.7667 16.5441 16.5533 17.7574 15.02 18.6507C13.4867 19.5441 11.8133 19.9907 10 19.9907C8.18668 19.9907 6.51334 19.5441 4.98 18.6507C3.44668 17.7574 2.23334 16.5441 1.34 15.0107C0.44668 13.4774 0 11.8041 0 9.99072ZM1.66 9.99072C1.66 12.0707 2.36 13.9041 3.76 15.4907C4.4 14.2374 5.41334 13.0441 6.8 11.9107C8.18668 10.7774 9.54 10.0641 10.86 9.77072C10.66 9.30406 10.4667 8.88406 10.28 8.51072C7.98668 9.24406 5.50668 9.61072 2.84 9.61072C2.32 9.61072 1.93334 9.60406 1.68 9.59072C1.68 9.64406 1.67668 9.71072 1.67 9.79072C1.66334 9.87072 1.66 9.93738 1.66 9.99072ZM1.92 7.93072C2.21334 7.95738 2.64668 7.97072 3.22 7.97072C5.44668 7.97072 7.56 7.67072 9.56 7.07072C8.54668 5.27072 7.43334 3.77072 6.22 2.57072C5.16668 3.10406 4.26334 3.84406 3.51 4.79072C2.75668 5.73738 2.22668 6.78406 1.92 7.93072ZM4.9 16.5707C6.40668 17.7441 8.10668 18.3307 10 18.3307C10.9867 18.3307 11.9667 18.1441 12.94 17.7707C12.6733 15.4907 12.1533 13.2841 11.38 11.1507C10.1533 11.4174 8.91668 12.0907 7.67 13.1707C6.42334 14.2507 5.5 15.3841 4.9 16.5707ZM7.96 1.93072C9.13334 3.14406 10.22 4.65738 11.22 6.47072C13.0333 5.71072 14.4 4.74406 15.32 3.57072C13.7733 2.29072 12 1.65072 10 1.65072C9.32 1.65072 8.64 1.74406 7.96 1.93072ZM11.94 7.89072C12.14 8.31738 12.3667 8.85738 12.62 9.51072C13.6067 9.41738 14.68 9.37072 15.84 9.37072C16.6667 9.37072 17.4867 9.39072 18.3 9.43072C18.1933 7.61738 17.54 6.00406 16.34 4.59072C15.4733 5.88406 14.0067 6.98406 11.94 7.89072ZM13.12 10.9107C13.8 12.8841 14.26 14.9107 14.5 16.9907C15.5533 16.3107 16.4133 15.4374 17.08 14.3707C17.7467 13.3041 18.1467 12.1507 18.28 10.9107C17.3067 10.8441 16.42 10.8107 15.62 10.8107C14.8867 10.8107 14.0533 10.8441 13.12 10.9107Z" fill="#4A60A1"/>
</g>
<defs>
<clipPath id="clip0_1_482">
<rect width="20" height="20" fill="white" transform="translate(0 -0.00927734)"/>
</clipPath>
</defs>
</svg>
