<svg width="20" height="20" viewBox="0 0 20 20" fill="none" xmlns="http://www.w3.org/2000/svg">
<g clip-path="url(#clip0_1_486)">
<path d="M6.66721 9.99072C6.66721 8.14985 8.15913 6.65712 10 6.65712C11.8409 6.65712 13.3336 8.14985 13.3336 9.99072C13.3336 11.8316 11.8409 13.3243 10 13.3243C8.15913 13.3243 6.66721 11.8316 6.66721 9.99072ZM4.86511 9.99072C4.86511 12.8267 7.16397 15.1256 10 15.1256C12.836 15.1256 15.1349 12.8267 15.1349 9.99072C15.1349 7.1547 12.836 4.85583 10 4.85583C7.16397 4.85583 4.86511 7.1547 4.86511 9.99072ZM14.1381 4.65227C14.1381 5.31463 14.6753 5.8526 15.3385 5.8526C16.0008 5.8526 16.5388 5.31463 16.5388 4.65227C16.5388 3.98991 16.0016 3.45276 15.3385 3.45276C14.6753 3.45276 14.1381 3.98991 14.1381 4.65227ZM5.95961 18.1305C4.98465 18.086 4.45477 17.9237 4.10259 17.7864C3.6357 17.6046 3.30291 17.3881 2.95234 17.0384C2.60259 16.6886 2.3853 16.3558 2.20436 15.8889C2.06704 15.5368 1.90469 15.0069 1.86026 14.0319C1.81179 12.9778 1.8021 12.6612 1.8021 9.99072C1.8021 7.32029 1.8126 7.00445 1.86026 5.94953C1.90469 4.97457 2.06785 4.44549 2.20436 4.0925C2.38611 3.62562 2.60259 3.29282 2.95234 2.94226C3.3021 2.5925 3.6349 2.37521 4.10259 2.19428C4.45477 2.05696 4.98465 1.8946 5.95961 1.85017C7.01373 1.80171 7.33037 1.79201 10 1.79201C12.6704 1.79201 12.9863 1.80252 14.0412 1.85017C15.0162 1.8946 15.5452 2.05777 15.8982 2.19428C16.3651 2.37521 16.6979 2.5925 17.0485 2.94226C17.3982 3.29201 17.6147 3.62562 17.7964 4.0925C17.9338 4.44468 18.0961 4.97457 18.1406 5.94953C18.189 7.00445 18.1987 7.32029 18.1987 9.99072C18.1987 12.6604 18.189 12.977 18.1406 14.0319C18.0961 15.0069 17.933 15.5368 17.7964 15.8889C17.6147 16.3558 17.3982 16.6886 17.0485 17.0384C16.6987 17.3881 16.3651 17.6046 15.8982 17.7864C15.546 17.9237 15.0162 18.086 14.0412 18.1305C12.9871 18.1789 12.6704 18.1886 10 18.1886C7.33037 18.1886 7.01373 18.1789 5.95961 18.1305ZM5.87722 0.0513042C4.8126 0.0997695 4.08562 0.26859 3.44992 0.515763C2.79241 0.771013 2.23506 1.1135 1.67851 1.66924C1.12278 2.22497 0.780291 2.78232 0.52504 3.44064C0.277868 4.07634 0.109047 4.80332 0.0605816 5.86794C0.0113086 6.93418 0 7.27505 0 9.99072C0 12.7064 0.0113086 13.0473 0.0605816 14.1135C0.109047 15.1781 0.277868 15.9051 0.52504 16.5408C0.780291 17.1983 1.12197 17.7565 1.67851 18.3122C2.23425 18.8679 2.7916 19.2096 3.44992 19.4657C4.08643 19.7129 4.8126 19.8817 5.87722 19.9301C6.94427 19.9786 7.28433 19.9907 10 19.9907C12.7165 19.9907 13.0565 19.9794 14.1228 19.9301C15.1874 19.8817 15.9144 19.7129 16.5501 19.4657C17.2076 19.2096 17.7649 18.8679 18.3215 18.3122C18.8772 17.7565 19.2189 17.1983 19.475 16.5408C19.7221 15.9051 19.8918 15.1781 19.9394 14.1135C19.9879 13.0465 19.9992 12.7064 19.9992 9.99072C19.9992 7.27505 19.9879 6.93418 19.9394 5.86794C19.891 4.80332 19.7221 4.07634 19.475 3.44064C19.2189 2.78313 18.8772 2.22578 18.3215 1.66924C17.7658 1.1135 17.2076 0.771013 16.5509 0.515763C15.9144 0.26859 15.1874 0.0989617 14.1236 0.0513042C13.0574 0.00283897 12.7165 -0.00927734 10.0008 -0.00927734C7.28433 -0.00927734 6.94427 0.00203122 5.87722 0.0513042Z" fill="#4A60A1"/>
</g>
<defs>
<clipPath id="clip0_1_486">
<rect width="20" height="20" fill="white" transform="translate(0 -0.00927734)"/>
</clipPath>
</defs>
</svg>
