<svg width="20" height="20" viewBox="0 0 20 20" fill="none" xmlns="http://www.w3.org/2000/svg">
<g clip-path="url(#clip0_1_484)">
<path d="M0 2.31371C0 1.64029 0.225232 1.08474 0.675676 0.647043C1.12612 0.209327 1.71172 -0.00952148 2.43243 -0.00952148C3.14029 -0.00952148 3.71299 0.205953 4.15058 0.636942C4.60102 1.08139 4.82625 1.6605 4.82625 2.37431C4.82625 3.02078 4.60747 3.55948 4.16988 3.99047C3.71944 4.43492 3.12741 4.65714 2.39382 4.65714H2.37452C1.66666 4.65714 1.09396 4.43492 0.656371 3.99047C0.218784 3.54603 0 2.9871 0 2.31371ZM0.250965 19.9904V6.49552H4.53668V19.9904H0.250965ZM6.9112 19.9904H11.1969V12.4551C11.1969 11.9837 11.2484 11.6201 11.3514 11.3642C11.5315 10.9063 11.805 10.5191 12.1718 10.2026C12.5386 9.88608 12.9987 9.72784 13.5521 9.72784C14.9936 9.72784 15.7143 10.7447 15.7143 12.7783V19.9904H20V12.2531C20 10.2598 19.5496 8.74804 18.6486 7.71774C17.7477 6.68744 16.5573 6.17229 15.0772 6.17229C13.417 6.17229 12.1236 6.91976 11.1969 8.41471V8.45511H11.1776L11.1969 8.41471V6.49552H6.9112C6.93693 6.92649 6.94981 8.26655 6.94981 10.5157C6.94981 12.7649 6.93693 15.9231 6.9112 19.9904Z" fill="#4A60A1"/>
</g>
<defs>
<clipPath id="clip0_1_484">
<rect width="20" height="20" fill="white" transform="translate(0 -0.00927734)"/>
</clipPath>
</defs>
</svg>
