<svg width="20" height="20" viewBox="0 0 20 20" fill="none" xmlns="http://www.w3.org/2000/svg">
<path d="M8.07031 8.91237C8.07031 8.91237 9.96264 8.77371 9.96264 6.58341C9.96264 4.39296 8.41448 3.32397 6.4534 3.32397H0.000244141V15.5645H6.4534C6.4534 15.5645 10.3928 15.6874 10.3928 11.9517C10.3928 11.9517 10.5646 8.91237 8.07031 8.91237ZM5.9889 5.4996H6.4534C6.4534 5.4996 7.33057 5.4996 7.33057 6.77317C7.33057 8.04659 6.8147 8.23122 6.22956 8.23122H2.84359V5.4996H5.9889ZM6.27104 13.389H2.84359V10.1179H6.4534C6.4534 10.1179 7.76078 10.1009 7.76078 11.7989C7.76078 13.2306 6.78429 13.3782 6.27104 13.389ZM15.6467 6.43833C10.8776 6.43833 10.8818 11.1415 10.8818 11.1415C10.8818 11.1415 10.5546 15.8206 15.6467 15.8206C15.6467 15.8206 19.8901 16.0599 19.8901 12.5656H17.7078C17.7078 12.5656 17.7805 13.8815 15.7195 13.8815C15.7195 13.8815 13.5368 14.0259 13.5368 11.7519H19.9628C19.9628 11.7519 20.666 6.43833 15.6467 6.43833ZM13.5129 10.1179C13.5129 10.1179 13.7793 8.23118 15.6952 8.23118C17.6106 8.23118 17.5866 10.1179 17.5866 10.1179H13.5129ZM18.095 5.55243H12.9786V4.0451H18.095V5.55243Z" fill="#4A60A1"/>
</svg>
